<svg xmlns="http://www.w3.org/2000/svg" width="87.4mm" height="297.26" viewBox="0 0 247.75 222.94">
    <defs>
        <clipPath id="a">
            <path d="M197.1 97.47a44.89 44.89 0 0 1-10.68 1.15 95.25 95.25 0 0 0-10.76.47 81.56 81.56 0 0 0-10.73 1.57 55.09 55.09 0 0 1-21.46.07 62.91 62.91 0 0 0-10.72-1.31 57.87 57.87 0 0 0-10.74.33 58 58 0 0 1-10.71.35 62.54 62.54 0 0 1-10.62-1.3A48.31 48.31 0 0 0 90 97.74a46.91 46.91 0 0 0-10.84 1.14 82.76 82.76 0 0 1-10.88 1.65 85.13 85.13 0 0 1-10.84.49 40.68 40.68 0 0 0-10.93 1.28V.39a35.71 35.71 0 0 1 10.37 0 75.91 75.91 0 0 0 10.32.77A68.19 68.19 0 0 0 77.5.68a40.06 40.06 0 0 1 10.36.1 46.72 46.72 0 0 1 10.3 2.39 58.54 58.54 0 0 0 10.24 2.58 52.13 52.13 0 0 0 10.27.84 54.71 54.71 0 0 1 10.3.83 66.32 66.32 0 0 1 10.28 2.39 48.5 48.5 0 0 0 10.29 2 46.18 46.18 0 0 0 10.38 0 81.23 81.23 0 0 1 10.47-.45 93.06 93.06 0 0 1 10.53.58 43.8 43.8 0 0 0 10.55-.12c1.34 25.7 4.11 59.98 5.63 85.65z" fill="none" />
        </clipPath>
        <clipPath id="b">
            <path fill="none" d="M0 188.6h247.75v34.34H0z" />
        </clipPath>
    </defs>
    <path d="M187.33 180.12a2.84 2.84 0 0 1-2.83 2.88h-10.22a2.84 2.84 0 0 1-2.83-2.83v-29c0-1.56-.44-1.64-1-.17l-8.35 22.71a4.35 4.35 0 0 1-3.81 2.66h-4.69a4.34 4.34 0 0 1-3.8-2.66l-8.45-23c-.54-1.46-1-1.38-1 .18v29.24a2.84 2.84 0 0 1-2.83 2.83h-10a2.84 2.84 0 0 1-2.83-2.83v-67.88a2.84 2.84 0 0 1 2.83-2.84h11a4.33 4.33 0 0 1 3.79 2.67l12.82 35.61c.53 1.47 1.2 2 1.49 1.13s.95-2.74 1.48-4.2l11.65-32.54a4.3 4.3 0 0 1 3.78-2.67h10.97a2.84 2.84 0 0 1 2.83 2.84zM218.44 137.12L230 112a4.82 4.82 0 0 1 4-2.58h11.9a1.63 1.63 0 0 1 1.59 2.55l-19.6 40a14.48 14.48 0 0 0-1.25 5.37v22.79a2.85 2.85 0 0 1-2.83 2.83h-10.62a2.85 2.85 0 0 1-2.84-2.83v-22.79a14.49 14.49 0 0 0-1.25-5.34l-19.7-40a1.63 1.63 0 0 1 1.58-2.55h12.32a4.8 4.8 0 0 1 4 2.58zM92 109.42s25.43-.91 25.43 22.37c0 16.18-12.8 20.73-12.8 20.73l16.33 28c.79 1.35.16 2.45-1.4 2.45H106.4a5.4 5.4 0 0 1-4.23-2.46l-14.39-25.24h-5.47v24.85a2.84 2.84 0 0 1-2.83 2.88H68.76a2.84 2.84 0 0 1-2.83-2.83v-67.92a2.83 2.83 0 0 1 2.83-2.83zM82.31 140h7c11.78 0 11.78-6.1 11.78-8.7 0-4-.9-7.69-11.78-7.69h-7zM63.32 180.26L40.25 112.1a4.23 4.23 0 0 0-3.74-2.69h-9.46a4.23 4.23 0 0 0-3.74 2.69L.24 180.26A1.92 1.92 0 0 0 2.17 183H13.5a4.13 4.13 0 0 0 3.68-2.7l3.21-9.79 22.57.06 3.12 9.73a4.14 4.14 0 0 0 3.69 2.7H61.4a1.91 1.91 0 0 0 1.92-2.74zm-38-24.95l6.43-19.61 6.31 19.64z" />
    <g style="isolation:isolate">
        <g clip-path="url(#a)">
            <g fill="#193276">
                <path d="M134.62 34.48l1-.46c2.67-1.27 5-2.93 7.62-4.27 3.66-1.84 8.08-2.85 11.59-5 3.88-2.4 6.38-5.85 10.33-8.37 3-1.94 6.77-3.11 10.11-4.83-1.35-.07-2.94-.11-4.86-.12a81.23 81.23 0 0 0-10.47.45 46.18 46.18 0 0 1-10.38 0 48.5 48.5 0 0 1-10.29-2c-1.51-.46-3.05-.93-5.13-1.41-.25 9 0 17.57.5 26.08M103.88 32.34c-.45-9-.73-18.09-.54-27.62-2.11-.52-3.66-1-5.18-1.55A46.72 46.72 0 0 0 87.86.78 40.06 40.06 0 0 0 77.5.68a68.19 68.19 0 0 1-10.32.45c-1.89 0-3.44-.1-4.77-.18C66 3.55 70.4 5.27 74.1 8c2.71 2 5.14 4.28 7.92 6.25l1 .72c3.41 2.27 7.21 4.1 10.34 6.76 3.9 3.3 6.53 7.4 10.47 10.61M46.49 90.53c1.1-.72 3.39-2.19 5.59-3.79l.56-.41c3-2.24 5.66-4.67 8.56-6.78 3.73-2.73 8.09-4.5 11.72-6.91a36.85 36.85 0 0 0 6.81-6.13h-.28a76.47 76.47 0 0 1-10.75 1.26 80 80 0 0 1-11 0 44.13 44.13 0 0 0-11.24.67v22.09M46.49 34.4a40.24 40.24 0 0 1 10.76 0 75.72 75.72 0 0 0 10.56.59 68.93 68.93 0 0 0 10.39-.68h.27l-1.18-.9c-4.66-3.52-10.46-5.52-15.06-8.88-4.17-3.05-6.89-7.25-11.15-10a22.27 22.27 0 0 0-4.59-2.17V34.4M196.46 87.59q-.6-9.27-1.24-18.58a47.89 47.89 0 0 1-10.76.47 88.81 88.81 0 0 0-10.69-.1 76.31 76.31 0 0 0-10.49 1h-.24l1.23.76c4.85 3 10.82 4.45 15.63 7.12 4.37 2.42 7.35 5.84 11.84 7.83a24.59 24.59 0 0 0 4.72 1.43M193.23 40.42c-.42-6.18-.84-12.36-1.21-18.55-1.09.57-3.12 1.61-5.21 2.86l-.53.32c-2.82 1.73-5.25 3.69-8 5.38-3.52 2.18-7.7 3.55-11.16 5.56a30.3 30.3 0 0 0-6.42 5.24h.24a78.79 78.79 0 0 1 10.55-.79 95.56 95.56 0 0 1 10.8.3 48.2 48.2 0 0 0 10.91-.29M138.11 99.84c2.18.26 3.78.58 5.36.89a55.09 55.09 0 0 0 21.46-.07 81.56 81.56 0 0 1 10.73-1.57c1.87-.17 3.43-.28 4.77-.36-3.87-1.84-8.44-2.91-12.35-5-2.85-1.52-5.42-3.38-8.34-4.94l-1.1-.57c-2.5-1.27-5.25-2.23-7.7-3.61a28.82 28.82 0 0 1-5-3.47c-2.9-2.51-5.28-5.38-8.54-7.71.51 8.56.83 17.31.68 26.41M68.26 100.53a82.76 82.76 0 0 0 10.88-1.65A46.91 46.91 0 0 1 90 97.74a48.31 48.31 0 0 1 10.7 1.06c1.57.3 3.17.63 5.36.89.51-9.25.46-18.17.14-27l-1 .52c-2.75 1.46-5.14 3.34-7.9 4.92-3.82 2.18-8.41 3.56-12.14 6.18-4.13 2.91-6.88 7-11.1 10.15-3.19 2.43-7.08 4.13-10.59 6.43 1.36-.08 2.93-.21 4.82-.39" />
            </g>
            <path d="M46.49 61.62a43.76 43.76 0 0 1 11.18-.53 79 79 0 0 0 10.9.14 75.27 75.27 0 0 0 10.69-1.09 46.17 46.17 0 0 1 10.56-.65 51.05 51.05 0 0 1 10.54 1.38 63.54 63.54 0 0 0 10.46 1.54c.85.06 1.63.11 2.36.14a334.57 334.57 0 0 1 .55 37.63 55.92 55.92 0 0 0 8.28-.43 56.4 56.4 0 0 1 8.42-.42c.33-12.92-.33-25.12-1.2-37.14.69 0 1.44.07 2.25.13A66.81 66.81 0 0 1 142 63.83a53.07 53.07 0 0 0 10.47 1.29 49.65 49.65 0 0 0 10.39-.6 75.1 75.1 0 0 1 10.49-1 88.29 88.29 0 0 1 10.65.18 48.61 48.61 0 0 0 10.81-.41l-1.2-17.16a49.3 49.3 0 0 1-10.91.32 92.38 92.38 0 0 0-10.79-.27 78.74 78.74 0 0 0-10.54.83 49.57 49.57 0 0 1-10.4.45A52.88 52.88 0 0 1 140.55 46a69.2 69.2 0 0 0-10.43-1.69l-2.24-.18a362.4 362.4 0 0 1-1.14-37 50.72 50.72 0 0 0-8.07-.5 48.67 48.67 0 0 1-7.94-.49c-.29 13.25.4 25.74 1.22 38-.72 0-1.49-.11-2.34-.19a62.08 62.08 0 0 1-10.35-1.82 50.94 50.94 0 0 0-10.41-1.69 44.27 44.27 0 0 0-10.38.34 69.33 69.33 0 0 1-10.47.77 76.19 76.19 0 0 1-10.65-.49 41 41 0 0 0-10.88.15v20.41" fill="#d70826" />
            <path d="M46.49 8.34C51.18 10 53.5 12 57 15.67a34.87 34.87 0 0 0 6.39 5.7C67 23.83 71.41 25.42 75.1 28c2.59 1.81 5 3.84 7.67 5.58l.37.24a57.18 57.18 0 0 1 13 1.3 33.13 33.13 0 0 0-3.58-3c-3.71-2.75-8.1-4.59-11.82-7.26-2.58-1.87-4.92-4-7.57-5.7l-.52-.34a48.48 48.48 0 0 0-3.62-2.09c-5.69-2.94-7.41-3.77-12-8.78C54.38 5 51.85 2.27 46.49.41v7.93" fill="#d70826" />
            <path d="M46.49.41c3.38 1.29 3.37 1 13.2 10.22 4.31 4 10.31 6.07 15.18 9.63C77.28 22 79.48 24 82 25.65c3.5 2.38 7.51 4.12 10.93 6.65a33.71 33.71 0 0 1 3.29 2.84 57.18 57.18 0 0 0-13-1.3l-.52-.33c-2.84-1.84-5.34-4-8.11-5.9-3.59-2.44-7.81-4-11.34-6.35a35.6 35.6 0 0 1-6.33-5.71C53.51 12 51.12 10 46.49 8.34v3.95a22.53 22.53 0 0 1 4.66 2.21c4.44 2.86 7.22 7.29 11.7 10.38s10 5.1 14.49 8.48l1.13.86h-.27a68.93 68.93 0 0 1-10.39.68 75.72 75.72 0 0 1-10.56-.59 40.24 40.24 0 0 0-10.76 0v6.81a41 41 0 0 1 10.88-.15 76.19 76.19 0 0 0 10.63.58 69.33 69.33 0 0 0 10.45-.77 44.27 44.27 0 0 1 10.38-.34 50.94 50.94 0 0 1 10.41 1.69A62.08 62.08 0 0 0 109.61 44c.85.08 1.62.14 2.34.19-.82-12.3-1.51-24.79-1.22-38-.72-.09-1.49-.21-2.33-.35-2-.34-3.67-.69-5.06-1-.19 9.53.09 18.67.54 27.62-4-3.29-6.71-7.44-10.68-10.8-3.14-2.65-7-4.44-10.35-6.72l-1-.71c-2.78-2-5.19-4.28-7.91-6.25C70.26 5.2 66 3.52 62.41 1c-2.3-.2-3.94-.43-5.55-.64a35.71 35.71 0 0 0-10.37 0M130.43 99.33l2.32.09c2.16.1 3.89.25 5.36.42.15-9.1-.17-17.85-.68-26.41 4.07 3 6.89 6.74 11 9.62 3.24 2.26 7.18 3.6 10.7 5.42l.54.28c3.08 1.65 5.79 3.63 8.83 5.2 3.8 2 8.23 3 11.93 4.78 2.5-.13 4.26-.11 6-.11a44.75 44.75 0 0 0 10.41-1.09c-5.27-1-7-2.31-11.73-5.86-4.17-3.25-5.18-4.49-12.45-7.21-7.9-3.7-14.94-7-22.89-11.39a23.82 23.82 0 0 1-4.66-2.72 53.92 53.92 0 0 0 7.78.72 54.22 54.22 0 0 0 5.43-.07l.54.28c2.92 1.56 5.5 3.42 8.37 5 3.75 2 8.1 3.09 11.8 4.94a37 37 0 0 1 6.74 4.5c3.58 2.78 6.12 4.29 10.92 5.26-.07-1.11-.15-2.22-.22-3.34a23.5 23.5 0 0 1-4.86-1.49c-4.68-2.09-7.71-5.73-12.4-8.15s-10.38-3.94-15-6.8l-1.13-.7h.24a76.31 76.31 0 0 1 10.49-1 88.81 88.81 0 0 1 10.69.1 47.89 47.89 0 0 0 10.72-.6l-.39-5.72a48.61 48.61 0 0 1-10.83.42 88.29 88.29 0 0 0-10.72-.16 75.1 75.1 0 0 0-10.49 1 49.65 49.65 0 0 1-10.39.6 53.07 53.07 0 0 1-10.4-1.31 66.81 66.81 0 0 0-10.47-1.51c-.81-.06-1.56-.1-2.25-.13.87 12 1.53 24.22 1.2 37.14" fill="#fff" />
            <path d="M134.89 39c2.12.35 3.69.73 5.23 1.09.91.22 1.84.43 2.88.63 3.67-2 8.22-3.06 11.81-5.29 3.37-2.1 5.66-5 8.71-7.38.41-.37.32-.12 12.3-6.45 3-1.64 5.62-3.7 8.5-5.58s5.4-3.18 7.16-4.1v-.05a43.8 43.8 0 0 1-10.55.12l-.62-.07-.39.27c-4.6 3.18-10.47 4.86-14.92 7.81-4.07 2.68-6.57 6.34-10.79 8.73-3.57 2-7.87 3.06-11.4 4.95-2.46 1.32-4.64 2.87-7.17 4.08l-.77.37v.86" fill="#d70826" />
            <path d="M127.88 44.14l2.24.18A69.2 69.2 0 0 1 140.55 46 52.88 52.88 0 0 0 151 47.46a49.57 49.57 0 0 0 10.4-.45 78.74 78.74 0 0 1 10.54-.83 92.38 92.38 0 0 1 10.79.27 49.3 49.3 0 0 0 10.91-.32c-.13-1.9-.27-3.81-.4-5.71a48.2 48.2 0 0 1-10.91.29 95.56 95.56 0 0 0-10.8-.3 78.79 78.79 0 0 0-10.53.79h-.24a30.29 30.29 0 0 1 6.56-5.32c3.58-2.09 8-3.51 11.57-5.83 2.53-1.63 4.87-3.46 7.54-5.1l.53-.32c2-1.21 4.25-2.35 5.09-2.79-.2-3.32-.38-6.63-.54-10-1.37.73-4.24 2.2-7.1 4.06-3 2-5.8 4.17-9 5.87-11.06 5.68-11 5.47-12.19 6.51-2.84 2.34-5.05 5-8.27 7-3.62 2.25-8.2 3.32-11.88 5.34-1-.2-2-.41-2.88-.63-1.54-.36-3.11-.74-5.23-1.09v-.86l.5-.23c2.68-1.29 5-2.93 7.62-4.32 3.38-1.78 7.5-2.76 10.89-4.67 4.4-2.48 7.05-6.3 11.34-9.06 4.51-2.89 10.32-4.61 14.88-7.78l.23-.16c-1.46-.14-3-.3-5.05-.39-11.07 5.54-11 5.33-12.3 6.39-2.91 2.31-5.15 5-8.41 7C151 27 146.61 28 143 29.87c-2.64 1.35-5 3-7.64 4.27l-.73.34c-.49-8.51-.75-17.13-.5-26.08-1.41-.32-3.08-.65-5.15-1-.8-.13-1.54-.24-2.23-.33a362.4 362.4 0 0 0 1.14 37.05" fill="#fff" />
            <path d="M57.42 101h1c4.89-4.15 11-6.66 15.84-10.33 4.35-3.34 7.11-7.59 11.56-10.46 3.76-2.43 8.22-3.81 11.92-6 2.55-1.5 4.79-3.25 7.39-4.6l.92-.48c0-.37 0-.73-.05-1.1-2.16-.29-3.76-.63-5.32-1-.84-.17-1.68-.35-2.62-.52-3.92 2.35-8.78 3.74-12.71 6.45-3.37 2.32-5.74 5.44-8.78 8.22-1.12 1.11-1 .76-12.93 8.24-3.26 2.12-6.09 4.75-9.18 7.23-1.64 1.32-3.81 3-7.37 5.44A39.76 39.76 0 0 1 57.42 101" fill="#d70826" />
            <path d="M46.49 68.42a44.13 44.13 0 0 1 11.24-.67 80 80 0 0 0 11 0 76.47 76.47 0 0 0 10.75-1.21h.28a36.76 36.76 0 0 1-6.88 6.18c-3.63 2.41-8 4.18-11.71 6.9-2.72 2-5.18 4.29-8 6.39l-1.1.81c-2.16 1.57-4.6 3.14-5.52 3.74v11.74l.59-.14c2-1.41 4.43-3.07 7.32-5.4 3.28-2.64 6.28-5.41 9.77-7.61 11-6.74 10.93-6.45 12.8-8.28 2.82-2.67 5.1-5.61 8.32-7.8 3.95-2.71 8.84-4.11 12.76-6.49.94.17 1.78.35 2.62.52 1.56.34 3.16.68 5.32 1 0 .37 0 .73.05 1.1l-.51.26c-2.75 1.44-5.16 3.27-7.87 4.87-3.71 2.17-8.18 3.57-12 6-4.63 3-7.44 7.49-12.13 10.89S63.08 97.07 58.41 101c1.44 0 3 0 5-.11 11.38-7.18 11.38-6.87 13-8.48 3.11-2.86 5.59-6 9.09-8.39 3.75-2.53 8.3-3.9 12.06-6.1 2.74-1.6 5.16-3.45 7.92-4.91l.64-.32c.32 8.8.37 17.72-.14 27 1.44.17 3.14.31 5.26.41.88 0 1.68.07 2.43.08a334.57 334.57 0 0 0-.55-37.63c-.73 0-1.51-.08-2.36-.14a63.54 63.54 0 0 1-10.46-1.54 51.05 51.05 0 0 0-10.54-1.38 46.17 46.17 0 0 0-10.56.65 75.27 75.27 0 0 1-10.69 1.09 79 79 0 0 1-10.9-.14 43.76 43.76 0 0 0-11.18.53v6.8" fill="#fff" />
            <path d="M196.83 97.53l.27-.06-.42-6.54c-4.87-1-7.34-2.47-11.05-5.36a35.07 35.07 0 0 0-6.79-4.49c-3.84-1.92-8.38-3-12.23-5.18-2.69-1.49-5.15-3.23-7.92-4.7l-.38-.2a54.22 54.22 0 0 1-5.43.07 53.92 53.92 0 0 1-7.78-.72 30.79 30.79 0 0 0 3.65 2.71c3.8 2.39 8.3 3.85 12.13 6.07 2.67 1.54 5.13 3.26 7.89 4.63l.54.26a40.48 40.48 0 0 0 3.77 1.58c6 2.18 7.84 2.77 12.76 6.64 7 5.39 10.6 5.26 11 5.29" fill="#d70826" />
        </g>
    </g>
    <g clip-path="url(#b)">
        <path d="M201.6 216.78a.88.88 0 0 1 1.08-.64h.14a17.79 17.79 0 0 0 7.59 1.91c3.87 0 5.63-1.52 5.63-4.64 0-2.62-1.4-3.75-5.72-5.36-5.55-2-9-3.44-9-9.9 0-5.7 4.19-9.59 10.42-9.59a21.94 21.94 0 0 1 9 1.82.88.88 0 0 1 .49 1.1l-.93 2.9a.91.91 0 0 1-1.13.57 19.63 19.63 0 0 0-7.28-1.3c-3.26 0-4.89 1.42-4.89 4.05s1.59 3.67 6.06 5.33c5.32 1.91 8.91 3.47 8.91 9.79 0 6.1-4.24 10.08-10.82 10.08a18.52 18.52 0 0 1-9.78-2.33.88.88 0 0 1-.43-1zM197 217h-12.17a.53.53 0 0 1-.54-.53V208a.54.54 0 0 1 .54-.53h9.07a.89.89 0 0 0 .89-.89v-3.41a.9.9 0 0 0-.89-.9h-9.07a.53.53 0 0 1-.54-.53v-7.11a.54.54 0 0 1 .54-.54h11.47a.89.89 0 0 0 .89-.89v-3.33a.89.89 0 0 0-.89-.89h-17.23a.89.89 0 0 0-.89.89v31.38a.89.89 0 0 0 .89.89H197a.89.89 0 0 0 .89-.89v-3.43a.9.9 0 0 0-.89-.82zM46.46 217H34.29a.53.53 0 0 1-.54-.53V208a.54.54 0 0 1 .54-.53h9.07a.89.89 0 0 0 .89-.89v-3.41a.9.9 0 0 0-.89-.9h-9.07a.53.53 0 0 1-.54-.53v-7.11a.54.54 0 0 1 .54-.54h11.46a.89.89 0 0 0 .9-.89v-3.33a.89.89 0 0 0-.9-.89H28.53a.89.89 0 0 0-.9.89v31.38a.89.89 0 0 0 .9.89h17.93a.89.89 0 0 0 .89-.89v-3.43a.9.9 0 0 0-.89-.82zM134.58 217h-12.17a.53.53 0 0 1-.54-.53V208a.54.54 0 0 1 .54-.53h9.07a.89.89 0 0 0 .89-.89v-3.41a.9.9 0 0 0-.89-.9h-9.07a.53.53 0 0 1-.54-.53v-7.11a.54.54 0 0 1 .54-.54h11.47a.89.89 0 0 0 .89-.89v-3.33a.89.89 0 0 0-.89-.89h-17.23a.89.89 0 0 0-.89.89v31.38a.89.89 0 0 0 .89.89h17.93a.89.89 0 0 0 .89-.89v-3.43a.9.9 0 0 0-.89-.82zM246.86 189h-22.58a.89.89 0 0 0-.89.89v3.45a.89.89 0 0 0 .89.89h7.52a.54.54 0 0 1 .53.54v26.5a.89.89 0 0 0 .9.89h4.59a.89.89 0 0 0 .89-.89v-26.5a.54.54 0 0 1 .54-.54h7.61a.89.89 0 0 0 .89-.89v-3.45a.89.89 0 0 0-.89-.89zM81.52 189H58.94a.89.89 0 0 0-.89.89v3.45a.89.89 0 0 0 .89.89h7.52a.54.54 0 0 1 .54.54v26.5a.89.89 0 0 0 .89.89h4.59a.89.89 0 0 0 .9-.89v-26.5a.54.54 0 0 1 .53-.54h7.61a.89.89 0 0 0 .89-.89v-3.45a.89.89 0 0 0-.89-.89zM109.11 189h-4.64a.89.89 0 0 0-.89.89v11.87a.53.53 0 0 1-.53.53H92.29a.53.53 0 0 1-.53-.53v-11.85a.89.89 0 0 0-.9-.89h-4.63a.89.89 0 0 0-.9.89v31.38a.89.89 0 0 0 .9.89h4.63a.89.89 0 0 0 .9-.89v-13.16a.53.53 0 0 1 .53-.53h10.76a.53.53 0 0 1 .53.53v13.16a.89.89 0 0 0 .89.89h4.64a.89.89 0 0 0 .89-.89v-31.38a.89.89 0 0 0-.89-.91zM10 217.41H6.69a.54.54 0 0 1-.53-.54v-8.34a.54.54 0 0 1 .53-.54h3.43c2.89 0 6.33.86 6.33 4.93 0 3.27-1.76 4.49-6.45 4.49zm6-19.06c0 3.16-1.7 4.45-5.89 4.45H6.69a.54.54 0 0 1-.53-.54v-7.9a.54.54 0 0 1 .53-.54h3.17c4.36 0 6.06 1.27 6.06 4.53m6.86 14.9c0-3.91-1.53-6.49-4.67-7.91a8.33 8.33 0 0 0 4.15-7.64c0-7.78-7-8.68-12.27-8.68H.89a.89.89 0 0 0-.89.89v31.38a.89.89 0 0 0 .89.89h10.42c7.61 0 11.47-3 11.47-8.93M160.71 217.41h-3.25a.54.54 0 0 1-.54-.54v-8.34a.54.54 0 0 1 .54-.54h3.42c2.89 0 6.33.86 6.33 4.93 0 3.27-1.76 4.49-6.5 4.49zm6-19.06c0 3.16-1.7 4.45-5.89 4.45h-3.33a.54.54 0 0 1-.54-.54v-7.9a.54.54 0 0 1 .54-.54h3.16c4.36 0 6.06 1.27 6.06 4.53m6.87 14.9c0-3.91-1.54-6.49-4.68-7.91a8.33 8.33 0 0 0 4.1-7.64c0-7.78-7-8.68-12.27-8.68h-9.1a.89.89 0 0 0-.89.89v31.38a.89.89 0 0 0 .89.89h10.42c7.61 0 11.48-3 11.48-8.93" />
    </g>
</svg>