<?xml version="1.0" encoding="UTF-8"?>
<svg width="1460px" height="1121px" viewBox="0 0 1460 1121" version="1.1" xmlns="http://www.w3.org/2000/svg" xmlns:xlink="http://www.w3.org/1999/xlink">
    <title>iPad_Pro</title>
    <defs>
        <path d="M1455.76331,1047.57192 C1454.95884,1066.86981 1452.11749,1075.53489 1447.45175,1084.25906 C1441.87393,1094.68869 1433.68869,1102.87393 1423.25906,1108.45175 C1412.82943,1114.02958 1402.48427,1117 1373.95567,1117 L1354,1117 C1355.10457,1117 1356,1117.89543 1356,1119 C1356,1120.10457 1355.10457,1121 1354,1121 L1304,1121 C1302.89543,1121 1302,1120.10457 1302,1119 C1302,1117.89543 1302.89543,1117 1304,1117 L1290,1117 C1291.10457,1117 1292,1117.89543 1292,1119 C1292,1120.10457 1291.10457,1121 1290,1121 L1240,1121 C1238.89543,1121 1238,1120.10457 1238,1119 C1238,1117.89543 1238.89543,1117 1240,1117 L82.0443264,1117 C53.5157267,1117 43.1705671,1114.02958 32.7409375,1108.45175 C22.3113079,1102.87393 14.1260735,1094.68869 8.54824652,1084.25906 C2.97041956,1073.82943 1.28395317e-15,1063.48427 -2.20979266e-15,1034.95567 L2.20979266e-15,82.0443264 C-1.28395317e-15,53.5157267 2.97041956,43.1705671 8.54824652,32.7409375 C14.1260735,22.3113079 22.3113079,14.1260735 32.7409375,8.54824652 C43.1705671,2.97041956 53.5157267,1.92592976e-15 82.0443264,-3.31468898e-15 L1373.95567,3.31468898e-15 C1402.48427,-1.92592976e-15 1412.82943,2.97041956 1423.25906,8.54824652 C1433.68869,14.1260735 1441.87393,22.3113079 1447.45175,32.7409375 C1453.02958,43.1705671 1456,53.5157267 1456,82.0443264 L1456,986.267564 C1456.29417,986.097394 1456.63571,986 1457,986 C1458.10457,986 1459,986.895431 1459,988 L1459,1046 C1459,1047.10457 1458.10457,1048 1457,1048 C1456.53313,1048 1456.10363,1047.84003 1455.76331,1047.57192 Z M70.638852,45 C61.7236646,45 58.4908022,45.9282561 55.231543,47.671327 C51.9722837,49.414398 49.414398,51.9722837 47.671327,55.231543 C45.9282561,58.4908022 45,61.7236646 45,70.638852 L45,1043.36115 C45,1052.27634 45.9282561,1055.5092 47.671327,1058.76846 C49.414398,1062.02772 51.9722837,1064.5856 55.231543,1066.32867 C58.4908022,1068.07174 61.7236646,1069 70.638852,1069 L1385.36115,1069 C1394.27634,1069 1397.5092,1068.07174 1400.76846,1066.32867 C1404.02772,1064.5856 1406.5856,1062.02772 1408.32867,1058.76846 C1410.07174,1055.5092 1411,1052.27634 1411,1043.36115 L1411,70.638852 C1411,61.7236646 1410.07174,58.4908022 1408.32867,55.231543 C1406.5856,51.9722837 1404.02772,49.414398 1400.76846,47.671327 C1397.5092,45.9282561 1394.27634,45 1385.36115,45 L70.638852,45 Z" id="path-1"></path>
        <linearGradient x1="0%" y1="49.9999992%" x2="100%" y2="50%" id="linearGradient-3">
            <stop stop-color="#F9FAFB" offset="0%"></stop>
            <stop stop-color="#5F6161" offset="4.84894777%"></stop>
            <stop stop-color="#F6F6F6" offset="10.5098601%"></stop>
            <stop stop-color="#F2F4F5" offset="90.3186429%"></stop>
            <stop stop-color="#727475" offset="95.2550088%"></stop>
            <stop stop-color="#F1F3F5" offset="100%"></stop>
        </linearGradient>
        <linearGradient x1="0%" y1="49.9999992%" x2="100%" y2="50%" id="linearGradient-4">
            <stop stop-color="#F9FAFB" offset="0%"></stop>
            <stop stop-color="#5F6161" offset="9.85594292%"></stop>
            <stop stop-color="#F6F6F6" offset="17.010272%"></stop>
            <stop stop-color="#F2F4F5" offset="83.767612%"></stop>
            <stop stop-color="#727475" offset="91.8059068%"></stop>
            <stop stop-color="#F1F3F5" offset="100%"></stop>
        </linearGradient>
        <path d="M82.0443264,-3.31468898e-15 L1373.95567,3.31468898e-15 C1402.48427,-1.92592976e-15 1412.82943,2.97041956 1423.25906,8.54824652 C1433.68869,14.1260735 1441.87393,22.3113079 1447.45175,32.7409375 C1453.02958,43.1705671 1456,53.5157267 1456,82.0443264 L1456,1034.95567 C1456,1063.48427 1453.02958,1073.82943 1447.45175,1084.25906 C1441.87393,1094.68869 1433.68869,1102.87393 1423.25906,1108.45175 C1412.82943,1114.02958 1402.48427,1117 1373.95567,1117 L82.0443264,1117 C53.5157267,1117 43.1705671,1114.02958 32.7409375,1108.45175 C22.3113079,1102.87393 14.1260735,1094.68869 8.54824652,1084.25906 C2.97041956,1073.82943 1.28395317e-15,1063.48427 -2.20979266e-15,1034.95567 L2.20979266e-15,82.0443264 C-1.28395317e-15,53.5157267 2.97041956,43.1705671 8.54824652,32.7409375 C14.1260735,22.3113079 22.3113079,14.1260735 32.7409375,8.54824652 C43.1705671,2.97041956 53.5157267,1.92592976e-15 82.0443264,-3.31468898e-15 Z" id="path-5"></path>
        <filter x="-0.2%" y="-0.3%" width="100.5%" height="100.6%" filterUnits="objectBoundingBox" id="filter-6">
            <feMorphology radius="1" operator="erode" in="SourceAlpha" result="shadowSpreadInner1"></feMorphology>
            <feOffset dx="0" dy="0" in="shadowSpreadInner1" result="shadowOffsetInner1"></feOffset>
            <feComposite in="shadowOffsetInner1" in2="SourceAlpha" operator="arithmetic" k2="-1" k3="1" result="shadowInnerInner1"></feComposite>
            <feColorMatrix values="0 0 0 0 1   0 0 0 0 1   0 0 0 0 1  0 0 0 0.3 0" type="matrix" in="shadowInnerInner1"></feColorMatrix>
        </filter>
        <radialGradient cx="74.8901367%" cy="84.2651367%" fx="74.8901367%" fy="84.2651367%" r="58.4252149%" id="radialGradient-7">
            <stop stop-color="#464646" offset="0%"></stop>
            <stop stop-color="#262626" offset="100%"></stop>
        </radialGradient>
        <path d="M10,75 C8.34314575,75 7,76.3465171 7,78 L7,78 C7,79.6568542 8.34651712,81 10,81 L10,81 C11.6568542,81 13,79.6534829 13,78 L13,78 C13,76.3431458 11.6534829,75 10,75 L10,75 Z" id="path-8"></path>
        <filter x="-58.3%" y="-58.3%" width="216.7%" height="216.7%" filterUnits="objectBoundingBox" id="filter-9">
            <feMorphology radius="1" operator="erode" in="SourceAlpha" result="shadowSpreadInner1"></feMorphology>
            <feGaussianBlur stdDeviation="2" in="shadowSpreadInner1" result="shadowBlurInner1"></feGaussianBlur>
            <feOffset dx="0" dy="0" in="shadowBlurInner1" result="shadowOffsetInner1"></feOffset>
            <feComposite in="shadowOffsetInner1" in2="SourceAlpha" operator="arithmetic" k2="-1" k3="1" result="shadowInnerInner1"></feComposite>
            <feColorMatrix values="0 0 0 0 0   0 0 0 0 0.404235338   0 0 0 0 0.652715774  0 0 0 1 0" type="matrix" in="shadowInnerInner1" result="shadowMatrixInner1"></feColorMatrix>
            <feOffset dx="-1" dy="-1" in="SourceAlpha" result="shadowOffsetInner2"></feOffset>
            <feComposite in="shadowOffsetInner2" in2="SourceAlpha" operator="arithmetic" k2="-1" k3="1" result="shadowInnerInner2"></feComposite>
            <feColorMatrix values="0 0 0 0 0.0684937961   0 0 0 0 0.302843863   0 0 0 0 0.439971301  0 0 0 0.559369256 0" type="matrix" in="shadowInnerInner2" result="shadowMatrixInner2"></feColorMatrix>
            <feMerge>
                <feMergeNode in="shadowMatrixInner1"></feMergeNode>
                <feMergeNode in="shadowMatrixInner2"></feMergeNode>
            </feMerge>
        </filter>
        <filter x="-150.0%" y="-150.0%" width="400.0%" height="400.0%" filterUnits="objectBoundingBox" id="filter-10">
            <feGaussianBlur stdDeviation="1" in="SourceGraphic"></feGaussianBlur>
        </filter>
        <filter x="0.0%" y="0.0%" width="100.0%" height="100.0%" filterUnits="objectBoundingBox" id="filter-11">
            <feGaussianBlur stdDeviation="0" in="SourceGraphic"></feGaussianBlur>
        </filter>
    </defs>
    <g id="iPad_Pro" stroke="none" stroke-width="1" fill="none" fill-rule="evenodd">
        <mask id="mask-2" fill="white">
            <use xlink:href="#path-1"></use>
        </mask>
        <use id="Mask" fill="#000000" fill-rule="nonzero" xlink:href="#path-1"></use>
        <g id="iPad" mask="url(#mask-2)">
            <g id="buttons" transform="translate(1238.000000, 986.000000)" fill-rule="nonzero">
                <path d="M190,29 L248,29 C249.104569,29 250,29.8954305 250,31 L250,31 C250,32.1045695 249.104569,33 248,33 L190,33 C188.895431,33 188,32.1045695 188,31 L188,31 C188,29.8954305 188.895431,29 190,29 Z" id="Power" fill="url(#linearGradient-3)" transform="translate(219.000000, 31.000000) rotate(90.000000) translate(-219.000000, -31.000000) "></path>
                <path d="M2,131 L52,131 C53.1045695,131 54,131.895431 54,133 L54,133 C54,134.104569 53.1045695,135 52,135 L2,135 C0.8954305,135 1.3527075e-16,134.104569 0,133 L0,133 C-1.3527075e-16,131.895431 0.8954305,131 2,131 Z" id="Volume_down" fill="url(#linearGradient-4)"></path>
                <path d="M66,131 L116,131 C117.104569,131 118,131.895431 118,133 L118,133 C118,134.104569 117.104569,135 116,135 L66,135 C64.8954305,135 64,134.104569 64,133 L64,133 C64,131.895431 64.8954305,131 66,131 Z" id="Volume_iup" fill="url(#linearGradient-4)"></path>
            </g>
            <g id="Frame">
                <use fill="#0E0E0E" fill-rule="evenodd" xlink:href="#path-5"></use>
                <use fill="black" fill-opacity="1" filter="url(#filter-6)" xlink:href="#path-5"></use>
                <path stroke-opacity="0.1" stroke="#FFFFFF" stroke-width="3" d="M82.0443264,-1.5 L1373.95567,-1.5 C1400.19225,-1.5 1411.86651,0.754403573 1423.96646,7.22552672 C1434.65749,12.9431534 1443.05685,21.3425069 1448.77447,32.0335392 C1455.2456,44.1334875 1457.5,55.8077473 1457.5,82.0443264 L1457.5,1034.95567 C1457.5,1061.19225 1455.2456,1072.86651 1448.77447,1084.96646 C1443.05685,1095.65749 1434.65749,1104.05685 1423.96646,1109.77447 C1411.86651,1116.2456 1400.19225,1118.5 1373.95567,1118.5 L82.0443264,1118.5 C55.8077473,1118.5 44.1334875,1116.2456 32.0335392,1109.77447 C21.3425069,1104.05685 12.9431534,1095.65749 7.22552672,1084.96646 C0.754403573,1072.86651 -1.5,1061.19225 -1.5,1034.95567 L-1.5,82.0443264 C-1.5,55.8077473 0.754403573,44.1334875 7.22552672,32.0335392 C12.9431534,21.3425069 21.3425069,12.9431534 32.0335392,7.22552672 C44.1334875,0.754403573 55.8077473,-1.5 82.0443264,-1.5 Z"></path>
                <path stroke-opacity="0.399088542" stroke="#28292A" stroke-width="2" d="M82.0443264,-1 L1373.95567,-1 C1400.11677,-1 1411.71305,1.23934518 1423.73066,7.66643332 C1434.33456,13.3374601 1442.66254,21.6654405 1448.33357,32.2693386 C1454.76065,44.2869486 1457,55.8832297 1457,82.0443264 L1457,1034.95567 C1457,1061.11677 1454.76065,1072.71305 1448.33357,1084.73066 C1442.66254,1095.33456 1434.33456,1103.66254 1423.73066,1109.33357 C1411.71305,1115.76065 1400.11677,1118 1373.95567,1118 L82.0443264,1118 C55.8832297,1118 44.2869486,1115.76065 32.2693386,1109.33357 C21.6654405,1103.66254 13.3374601,1095.33456 7.66643332,1084.73066 C1.23934518,1072.71305 -1,1061.11677 -1,1034.95567 L-1,82.0443264 C-1,55.8832297 1.23934518,44.2869486 7.66643332,32.2693386 C13.3374601,21.6654405 21.6654405,13.3374601 32.2693386,7.66643332 C44.2869486,1.23934518 55.8832297,-1 82.0443264,-1 Z"></path>
                <path stroke="#9FA0A1" stroke-width="3" d="M82.0443264,1.5 C56.2606414,1.5 45.0542542,3.6640532 33.4483358,9.87096632 C23.2801089,15.3089936 15.3089936,23.2801089 9.87096632,33.4483358 C3.6640532,45.0542542 1.5,56.2606414 1.5,82.0443264 L1.5,1034.95567 C1.5,1060.73936 3.6640532,1071.94575 9.87096632,1083.55166 C15.3089936,1093.71989 23.2801089,1101.69101 33.4483358,1107.12903 C45.0542542,1113.33595 56.2606414,1115.5 82.0443264,1115.5 L1373.95567,1115.5 C1399.73936,1115.5 1410.94575,1113.33595 1422.55166,1107.12903 C1432.71989,1101.69101 1440.69101,1093.71989 1446.12903,1083.55166 C1452.33595,1071.94575 1454.5,1060.73936 1454.5,1034.95567 L1454.5,82.0443264 C1454.5,56.2606414 1452.33595,45.0542542 1446.12903,33.4483358 C1440.69101,23.2801089 1432.71989,15.3089936 1422.55166,9.87096632 C1410.94575,3.6640532 1399.73936,1.5 1373.95567,1.5 L82.0443264,1.5 Z" stroke-linejoin="square"></path>
                <use stroke-opacity="0.499830163" stroke="#F8F8F8" stroke-width="2" xlink:href="#path-5"></use>
            </g>
            <g id="Camera" opacity="0.699999988" transform="translate(1423.000000, 479.000000)">
                <circle id="Outer" fill-opacity="0.5" fill="url(#radialGradient-7)" cx="10" cy="78" r="6"></circle>
                <g id="Base">
                    <use fill="#072244" fill-rule="evenodd" xlink:href="#path-8"></use>
                    <use fill="black" fill-opacity="1" filter="url(#filter-9)" xlink:href="#path-8"></use>
                    <path stroke="#333333" stroke-width="1" d="M10,74.5 C11.9307028,74.5 13.5,76.06808 13.5,78 C13.5,79.9307028 11.93192,81.5 10,81.5 C8.06929718,81.5 6.5,79.93192 6.5,78 C6.5,76.0692972 8.06807996,74.5 10,74.5 Z"></path>
                </g>
                <circle id="Oval-2" fill="#03DBF8" filter="url(#filter-10)" cx="10" cy="77" r="1"></circle>
                <path d="M11.9997431,78 C12.0177749,77.1947178 11.0807378,77 11.0807378,77 C11.0807378,77 11.4934406,77.4812029 11.4724974,78 C11.4530717,78.4812029 11,79 11,79 C11,79 11.9817113,78.8052822 11.9997431,78 Z" id="Path-5" fill="#14AAC8"></path>
                <path d="M8.5,79 C8.77614239,79 9,78.7761424 9,78.5 C9,78.2238576 8.77614239,78 8.5,78 C8.22385761,78 8,78.2238576 8,78.5 C8,78.7761424 8.22385761,79 8.5,79 Z" id="Oval-3" fill="#30A4B9" filter="url(#filter-11)"></path>
                <circle id="Oval" fill="#000000" fill-rule="nonzero" cx="10" cy="8" r="8"></circle>
                <circle id="Oval" fill="#000000" fill-rule="nonzero" cx="10" cy="42" r="10"></circle>
                <circle id="Oval" fill="#000000" fill-rule="nonzero" cx="10" cy="148" r="10"></circle>
                <circle id="Oval" fill="#000000" fill-rule="nonzero" cx="10" cy="111" r="3"></circle>
            </g>
        </g>
    </g>
</svg>